<svg xmlns="http://www.w3.org/2000/svg" width="11" height="19" viewBox="0 0 11 19">
    <g fill="none" fill-rule="evenodd">
        <g fill="#FFF" fill-rule="nonzero">
            <g>
                <g>
                    <path d="M9.95.004L7.49 0C4.725 0 2.938 1.833 2.938 4.67v2.154H.464c-.214 0-.387.173-.387.387v3.12c0 .213.173.387.387.387h2.474v7.872c0 .214.173.387.387.387h3.229c.213 0 .386-.173.386-.387v-7.872h2.894c.213 0 .387-.174.387-.387V7.21c0-.103-.04-.201-.113-.274-.072-.073-.17-.113-.273-.113H6.94V4.998c0-.877.21-1.323 1.352-1.323H9.95c.214 0 .387-.173.387-.387V.39c0-.214-.173-.387-.386-.387z" transform="translate(-1205 -6291) translate(-23 5867) translate(1119 401) translate(109 23)"/>
                </g>
            </g>
        </g>
    </g>
</svg>
