<svg xmlns="http://www.w3.org/2000/svg" width="19" height="19" viewBox="0 0 19 19">
    <g fill="none" fill-rule="evenodd">
        <g fill="#FFF" fill-rule="nonzero">
            <g>
                <g>
                    <g transform="translate(-1126 -6291) translate(-23 5867) translate(1119 401) translate(30 23)">
                        <path d="M9.5 1.712c2.537 0 2.837.01 3.84.055.926.042 1.428.198 1.763.327.443.173.76.378 1.092.71.333.333.538.65.711 1.093.13.335.285.838.327 1.764.046 1.006.055 1.306.055 3.84 0 2.533-.01 2.84-.055 3.84-.042.926-.198 1.43-.327 1.765-.173.443-.378.76-.71 1.092-.333.333-.65.539-1.093.711-.335.13-.838.285-1.764.327-1.006.046-1.306.056-3.84.056-2.533 0-2.84-.01-3.84-.056-.926-.042-1.43-.198-1.765-.327-.412-.152-.786-.395-1.092-.71-.333-.333-.539-.65-.711-1.093-.13-.336-.285-.84-.327-1.766-.046-1.001-.056-1.302-.056-3.84 0-2.537.01-2.836.056-3.839.042-.926.198-1.427.327-1.762.172-.443.378-.76.71-1.093.333-.332.65-.538 1.093-.71.336-.13.84-.285 1.766-.327 1.001-.046 1.302-.056 3.84-.056M9.5 0C6.92 0 6.596.011 5.583.057 4.572.103 3.88.263 3.277.499 2.65.742 2.12 1.066 1.59 1.594 1.06 2.122.743 2.652.5 3.277.264 3.881.103 4.572.057 5.583.011 6.596 0 6.92 0 9.5c0 2.58.011 2.904.057 3.917.046 1.011.206 1.702.442 2.306.239.635.612 1.21 1.095 1.687.475.482 1.05.856 1.683 1.094.601.236 1.292.396 2.303.444 1.014.045 1.338.055 3.92.055 2.58 0 2.9-.01 3.914-.055 1.011-.048 1.702-.206 2.306-.444.634-.237 1.209-.61 1.682-1.094.483-.475.857-1.05 1.096-1.684.234-.603.396-1.294.441-2.305.046-1.013.057-1.338.057-3.917 0-2.58-.012-2.904-.058-3.917-.046-1.011-.206-1.702-.441-2.306-.24-.634-.613-1.208-1.097-1.683-.474-.483-1.049-.857-1.682-1.095-.602-.235-1.294-.396-2.304-.441C12.403.01 12.078 0 9.5 0z"/>
                        <path d="M9.5 4.622C6.84 4.67 4.709 6.84 4.709 9.5S6.84 14.33 9.5 14.378c2.693 0 4.878-2.185 4.878-4.878S12.193 4.622 9.5 4.622zm0 8.045c-1.75 0-3.167-1.417-3.167-3.167 0-1.75 1.417-3.167 3.167-3.167 1.75 0 3.167 1.417 3.167 3.167 0 1.75-1.417 3.167-3.167 3.167z"/>
                        <circle cx="14.571" cy="4.429" r="1.14"/>
                    </g>
                </g>
            </g>
        </g>
    </g>
</svg>
