<svg xmlns="http://www.w3.org/2000/svg" xmlns:xlink="http://www.w3.org/1999/xlink" width="1440" height="89" viewBox="0 0 1440 89">
    <defs>
        <path id="71kboam3fa" d="M0 0H1440V89H0z"/>
    </defs>
    <g fill="none" fill-rule="evenodd">
        <g>
            <g transform="translate(0 -803) translate(0 803)">
                <mask id="bk9hk7so0b" fill="#fff">
                    <use xlink:href="#71kboam3fa"/>
                </mask>
                <path fill="#FFF" d="M-25.328 707.644c-28.39-228.88-56.764-457.954-85.124-687.22-.182-1.494-.363-2.987-.548-4.481 5.045 1.799 10.088 3.592 15.133 5.376 4.86.288 9.718.572 14.579.847 4.602-1.948 9.204-3.906 13.806-5.867 5.034 1.775 10.07 3.547 15.107 5.308 4.937.93 9.874 1.853 14.809 2.769 4.718-1.036 9.437-2.08 14.155-3.129 4.727-1.011 9.457-2.032 14.184-3.056C-4.485 17.25.256 16.308 5 15.359c4.886.395 9.77.781 14.655 1.164 5.066 2.14 10.128 4.272 15.19 6.398 4.792-.527 9.582-1.063 14.374-1.602 4.747-1.033 9.491-2.074 14.238-3.122 4.813-.416 9.622-.841 14.434-1.27 4.892.423 9.784.836 14.676 1.249 4.77-.946 9.539-1.898 14.309-2.856 5.124 3.039 10.252 6.071 15.38 9.098 4.812-.48 9.624-.964 14.436-1.455 4.77-1.01 9.542-2.024 14.312-3.039 4.866.081 9.733.162 14.599.234 4.92.733 9.84 1.464 14.76 2.185 4.68-2.344 9.358-4.694 14.037-7.047 4.985 1.572 9.97 3.137 14.956 4.7 4.84-.32 9.682-.64 14.525-.97 4.96 1.323 9.923 2.644 14.883 3.955 4.753-1.653 9.502-3.308 14.255-4.97 4.772-1.467 9.542-2.94 14.315-4.415 4.903.428 9.806.85 14.709 1.266 4.988 1.787 9.974 3.568 14.962 5.347 4.81-1.045 9.62-2.093 14.429-3.15 4.988 1.934 9.98 3.862 14.968 5.781 4.852-.377 9.704-.76 14.556-1.15 4.88.105 9.76.204 14.644.297 4.872-.087 9.74-.18 14.616-.276 4.911.713 9.826 1.422 14.738 2.126 4.79-1.82 9.581-3.646 14.371-5.475 4.917.805 9.838 1.607 14.758 2.4 4.823-1.269 9.65-2.544 14.476-3.825 4.912.613 9.82 1.221 14.73 1.823 4.889.093 9.778.176 14.667.257 4.897.425 9.797.844 14.698 1.26 4.806-2.194 9.616-4.391 14.422-6.594 4.89-.06 9.775-.126 14.664-.198 4.98 2.946 9.957 5.882 14.937 8.816 4.866-.67 9.733-1.347 14.599-2.027 4.909.785 9.815 1.563 14.724 2.333 4.869-.635 9.74-1.279 14.612-1.928 4.852-1.617 9.704-3.24 14.56-4.868 4.925 1.733 9.851 3.455 14.777 5.173 4.852-2.114 9.701-4.236 14.553-6.361 4.895.08 9.79.155 14.684.224 4.91 1.33 9.82 2.65 14.732 3.964 4.88-1.186 9.758-2.377 14.636-3.572 4.892-.425 9.784-.85 14.676-1.284 4.894.093 9.792.18 14.686.26 4.903 1.722 9.807 3.437 14.71 5.146 4.892-.143 9.783-.293 14.675-.449 4.898 1.282 9.792 2.557 14.687 3.826 4.869-1.82 9.738-3.643 14.61-5.475 4.863 1.176 9.73 2.347 14.593 3.514 4.866-.455 9.738-.916 14.607-1.383 4.86.985 9.721 1.967 14.58 2.94 4.9-3.104 9.797-6.215 14.697-9.334 4.838 2.49 9.679 4.975 14.517 7.454 4.9-2.113 9.795-4.23 14.695-6.355 4.866.344 9.73.682 14.593 1.017 4.88-.53 9.758-1.062 14.638-1.604 4.864.353 9.727.697 14.59 1.039 4.836 1.386 9.67 2.769 14.506 4.146 4.846.74 9.692 1.476 14.539 2.203 4.883-.688 9.766-1.38 14.65-2.077 4.877-.56 9.76-1.129 14.64-1.7 4.85.472 9.7.942 14.548 1.406 4.918-1.544 9.835-3.095 14.75-4.652 4.826 1.108 9.65 2.206 14.476 3.3 4.807 1.496 9.61 2.99 14.411 4.475 4.9-.985 9.801-1.973 14.698-2.967 4.799 1.494 9.59 2.987 14.389 4.472 4.917-1.383 9.838-2.772 14.755-4.17 4.92-1.338 9.846-2.682 14.766-4.035 4.733 2.62 9.463 5.233 14.196 7.84 4.928-1.4 9.854-2.808 14.78-4.224 4.87-.203 9.735-.413 14.604-.632 4.9-.775 9.798-1.556 14.699-2.344 4.792 1.054 9.59 2.099 14.382 3.14 4.938-1.355 9.872-2.72 14.804-4.089 4.724 2.099 9.45 4.198 14.172 6.287 4.977-1.982 9.954-3.97 14.928-5.963 4.696 2.374 9.39 4.742 14.082 7.104 5.023-2.569 10.045-5.146 15.068-7.73 4.755 1.308 9.513 2.61 14.269 3.907 4.951-1.431 9.9-2.868 14.848-4.311 4.605 3.221 9.21 6.44 13.815 9.651 5.043-2.631 10.085-5.268 15.127-7.909 4.895-.661 9.79-1.329 14.684-2 4.61 2.85 9.221 5.694 13.829 8.532 4.778.674 9.556 1.344 14.335 2.01 4.869-.39 9.735-.782 14.598-1.177 4.952-1.35 9.903-2.7 14.852-4.06 4.971-1.512 9.94-3.03 14.908-4.55 4.824.123 9.645.236 14.471.347 4.628 2.174 9.255 4.34 13.877 6.505 4.807.219 9.61.434 14.414.641 4.895-.71 9.79-1.431 14.684-2.155 4.89-.671 9.778-1.345 14.67-2.03 4.735.832 9.474 1.661 14.21 2.482 4.817.018 9.632.033 14.45.042 4.895-.716 9.79-1.44 14.684-2.165 4.938-1.11 9.875-2.23 14.81-3.353 4.735.737 9.47 1.464 14.203 2.186 4.685 1.152 9.363 2.302 14.048 3.442 4.866-.497 9.732-1.003 14.596-1.512 4.707.866 9.411 1.728 14.115 2.581 4.992-1.578 9.986-3.161 14.977-4.754 4.858-.452 9.715-.907 14.573-1.37-.187 1.517-.372 3.035-.56 4.552-28.22 229.27-56.46 458.344-84.714 687.226-.813-.386-1.625-.772-2.438-1.161-4.107-.344-8.212-.692-12.314-1.042-5.048 1.841-10.094 3.676-15.139 5.505-4.61-1.877-9.22-3.76-13.831-5.649-4.716-1.03-9.435-2.06-14.15-3.101-4.94.94-9.883 1.871-14.823 2.799-4.935.913-9.872 1.826-14.807 2.73-4.923.844-9.851 1.683-14.774 2.518-4.787-.485-9.57-.976-14.358-1.47-4.616-2.221-9.23-4.449-13.843-6.682-4.886.44-9.778.88-14.667 1.311-4.937.952-9.871 1.898-14.811 2.841-4.875.339-9.753.67-14.63 1-4.801-.5-9.602-1.003-14.4-1.512-4.929.872-9.852 1.737-14.78 2.596-4.577-3.108-9.156-6.218-13.736-9.334-4.889.407-9.783.814-14.675 1.212-4.932.94-9.866 1.877-14.8 2.808-4.844-.15-9.688-.302-14.528-.46-4.795-.794-9.59-1.596-14.386-2.405-5.03 2.284-10.06 4.566-15.09 6.838-4.738-1.629-9.477-3.263-14.215-4.9-4.875.263-9.755.523-14.636.775-4.77-1.375-9.536-2.755-14.306-4.14-4.969 1.6-9.937 3.194-14.908 4.786-4.952 1.416-9.903 2.83-14.858 4.24-4.829-.474-9.661-.953-14.493-1.435-4.758-1.826-9.517-3.664-14.272-5.502-4.923 1.006-9.846 2.003-14.772 2.997-4.764-1.97-9.522-3.943-14.286-5.922-4.892.341-9.781.677-14.67 1.012-4.866-.138-9.733-.281-14.599-.431-4.877.057-9.752.108-14.627.153-4.843-.743-9.684-1.491-14.53-2.243-4.95 1.79-9.9 3.578-14.85 5.359-4.84-.83-9.68-1.665-14.518-2.506-4.923 1.249-9.84 2.491-14.764 3.727-4.852-.634-9.701-1.272-14.553-1.916-4.872-.107-9.741-.224-14.613-.344-4.866-.437-9.73-.886-14.593-1.335-4.934 2.176-9.872 4.353-14.806 6.52-4.875.048-9.75.09-14.622.126-4.812-2.952-9.621-5.91-14.43-8.87-4.895.661-9.79 1.317-14.685 1.97-4.866-.79-9.732-1.584-14.598-2.383-4.892.634-9.781 1.266-14.673 1.889-4.9 1.613-9.8 3.224-14.7 4.825-4.861-1.727-9.725-3.46-14.585-5.2-4.895 2.117-9.792 4.23-14.69 6.335-4.875-.075-9.752-.156-14.63-.243-4.875-1.317-9.75-2.646-14.621-3.975-4.886 1.191-9.77 2.383-14.653 3.565-4.903.434-9.806.86-14.712 1.282-4.904-.078-9.807-.165-14.713-.255-4.914-1.706-9.832-3.422-14.746-5.137-4.906.162-9.812.317-14.718.464-4.923-1.26-9.843-2.53-14.766-3.802-4.887 1.838-9.767 3.673-14.653 5.502-4.923-1.155-9.846-2.317-14.772-3.478-4.898.476-9.798.949-14.695 1.419-4.93-.961-9.855-1.925-14.781-2.895-4.832 3.131-9.667 6.263-14.5 9.385-4.965-2.458-9.93-4.925-14.893-7.394-4.847 2.143-9.69 4.28-14.534 6.415-4.909-.308-9.817-.626-14.73-.946-4.88.566-9.76 1.126-14.643 1.68-4.91-.312-9.818-.632-14.727-.955-4.951-1.348-9.903-2.7-14.854-4.063-4.929-.697-9.858-1.398-14.79-2.107-4.868.733-9.74 1.458-14.61 2.176-4.874.61-9.746 1.212-14.62 1.808-4.918-.422-9.838-.856-14.759-1.29-4.818 1.596-9.635 3.185-14.453 4.772-4.952-1.054-9.9-2.114-14.85-3.173-4.976-1.443-9.953-2.892-14.93-4.344-4.838 1.039-9.676 2.077-14.514 3.107-4.982-1.44-9.965-2.88-14.945-4.329-4.807 1.446-9.613 2.886-14.42 4.323-4.8 1.407-9.601 2.805-14.402 4.2-5.063-2.553-10.125-5.113-15.184-7.678-4.793 1.472-9.582 2.94-14.372 4.403-4.869.273-9.738.545-14.604.808-4.827.85-9.647 1.695-14.471 2.54-4.96-.98-9.92-1.965-14.877-2.953-4.773 1.44-9.54 2.871-14.309 4.3-5.048-2.024-10.093-4.051-15.141-6.08-4.71 2.065-9.42 4.127-14.13 6.181-5.077-2.29-10.153-4.583-15.233-6.885-4.644 2.661-9.289 5.32-13.93 7.969-4.989-1.219-9.975-2.44-14.96-3.67-4.733 1.526-9.463 3.044-14.195 4.562-5.173-3.129-10.35-6.266-15.52-9.406-4.604 2.733-9.212 5.46-13.817 8.181-4.792.76-9.582 1.518-14.372 2.27-5.15-2.746-10.3-5.5-15.45-8.263-4.932-.566-9.864-1.14-14.792-1.721-4.818.497-9.633.988-14.451 1.473-4.705 1.458-9.409 2.915-14.113 4.364-4.676 1.626-9.352 3.248-14.03 4.865-4.859 0-9.713-.015-14.571-.03-5.096-2.054-10.193-4.116-15.29-6.182-4.868-.096-9.737-.2-14.606-.311-4.753.844-9.5 1.676-14.252 2.503.028.224.053.446.082.664" mask="url(#bk9hk7so0b)"/>
            </g>
        </g>
    </g>
</svg>
